# xmcd
#
# Track frame offsets: 
#        150
#        12613
#        31520
#        54728
#        76502
#        99007
#        120524
#        141667
#        159319
#        179995
#        201134
#        221779
#        238251
#        259695
#        280787
#        297048
#
# Disc length: 4290 seconds
#
# Revision: 0
# Processed by: cddbd v1.5.2PL0 Copyright (c) Steve Scherf et al.
# Submitted via: ExactAudioCopyFreeDBPlugin 1.0
#
DISCID=e310c010
DTITLE=群星 - 试机18号
DYEAR=2010
DGENRE=Acid
TTITLE0=佳人曲
TTITLE1=请你等等我
TTITLE2=但原人长久
TTITLE3=一年又一年
TTITLE4=爱你爱到心里面
TTITLE5=我的九寨
TTITLE6=抉择
TTITLE7=举杯相逢
TTITLE8=雨中飘荡的回忆
TTITLE9=再回到从前
TTITLE10=卓玛
TTITLE11=今生相爱
TTITLE12=心甘情愿
TTITLE13=殤
TTITLE14=梨花又开放
TTITLE15=走过咖啡屋
EXTD=
EXTT0=
EXTT1=
EXTT2=
EXTT3=
EXTT4=
EXTT5=
EXTT6=
EXTT7=
EXTT8=
EXTT9=
EXTT10=
EXTT11=
EXTT12=
EXTT13=
EXTT14=
EXTT15=
PLAYORDER=
